<svg xmlns="http://www.w3.org/2000/svg" xmlns:xlink="http://www.w3.org/1999/xlink" version="1.1" x="0px" y="0px" viewBox="0 0 64 80" enable-background="new 0 0 64 64" xml:space="preserve"><g><path d="M54.103,1.797L27.029,1c-0.267-0.013-0.532,0.094-0.726,0.282C26.109,1.471,26,1.729,26,2v5v6v5   c0,0.271,0.109,0.529,0.304,0.717C26.49,18.899,26.74,19,27,19c0.01,0,0.02,0,0.029,0l12.08-0.355l3.589,17.944   C42.977,37.985,44.214,39,45.64,39H49v3c0,0.552,0.447,1,1,1h5.02c0.541,0,0.98,0.439,0.98,1.02c0,0.541-0.439,0.98-0.98,0.98   H44.98C43.337,45,42,46.337,42,48.02c0,1.643,1.337,2.98,2.98,2.98H55.02c0.541,0,0.98,0.439,0.98,1.02   c0,0.541-0.439,0.98-0.98,0.98H52c-1.654,0-3,1.346-3,3v4h2v-4c0-0.551,0.448-1,1-1h3.02c1.644,0,2.98-1.337,2.98-3.02   c0-1.643-1.337-2.98-2.98-2.98H44.98C44.439,49,44,48.561,44,47.98c0-0.541,0.439-0.98,0.98-0.98H55.02   c1.644,0,2.98-1.337,2.98-3.02c0-1.643-1.337-2.98-2.98-2.98H51v-2h2.583c0.896,0,1.739-0.396,2.312-1.087   c0.571-0.691,0.804-1.593,0.636-2.474l-3.278-17.211l0.851-0.025C58.531,18.073,62,14.5,62,10.07V9.93   C62,5.5,58.531,1.927,54.103,1.797z M30,3.089V6h-2V3.03L30,3.089z M28,12V8h10.03C39.116,8,40,8.884,40,10.03   c0,1.086-0.884,1.97-1.97,1.97H28z M28,14h2v2.911l-2,0.059V14z M42.02,23h1.286c0.491,0,0.906,0.351,0.986,0.836l0.334,2   c0.049,0.294-0.03,0.582-0.224,0.81C44.209,26.875,43.937,27,43.639,27H42.82L42.02,23z M54.354,36.638   C54.241,36.773,53.992,37,53.583,37H45.64c-0.476,0-0.888-0.338-0.98-0.804L44.42,35h9.991l0.155,0.813   C54.642,36.215,54.466,36.502,54.354,36.638z M54.03,33H44.02l-0.8-4h0.419c0.884,0,1.719-0.387,2.29-1.061s0.815-1.561,0.67-2.432   l-0.334-2C46.023,22.055,44.779,21,43.306,21H41.62l-0.483-2.415l10.091-0.297L54.03,33z M60,10.07   c0,3.342-2.616,6.036-5.956,6.134L32,16.853V14h6.03C40.219,14,42,12.219,42,9.97C42,7.781,40.219,6,38.03,6H32V3.147l22.044,0.648   C57.384,3.894,60,6.588,60,9.93V10.07z"/><rect x="6" y="33" width="2" height="12"/><rect x="16" y="33" width="2" height="12"/><rect x="26" y="33" width="2" height="12"/><rect x="10" y="33" width="4" height="12"/><rect x="20" y="33" width="4" height="12"/><rect x="20" y="47" width="2" height="2"/><path d="M31,29H3c-0.553,0-1,0.448-1,1v18c0,0.552,0.447,1,1,1h15v-2H4V31h26v16h-6v2h7c0.553,0,1-0.448,1-1V30   C32,29.448,31.553,29,31,29z"/></g><text x="0" y="79" fill="#000000" font-size="5px" font-weight="bold" font-family="'Helvetica Neue', Helvetica, Arial-Unicode, Arial, Sans-serif">Created by Petai Jantrapoon</text><text x="0" y="84" fill="#000000" font-size="5px" font-weight="bold" font-family="'Helvetica Neue', Helvetica, Arial-Unicode, Arial, Sans-serif">from the Noun Project</text></svg>