<svg xmlns="http://www.w3.org/2000/svg" xmlns:xlink="http://www.w3.org/1999/xlink" version="1.1" x="0px" y="0px" viewBox="0 0 66 82.5" style="enable-background:new 0 0 66 66;" xml:space="preserve"><g><g><path d="M23.9,65.9l22.6-12c0.3-0.2,0.5-0.5,0.5-0.9V31.5c0-0.4-0.3-0.8-0.6-0.9L23.9,18.3c-0.3-0.2-0.7-0.2-0.9,0    C21.3,19.2,3.9,28.5,0.5,30.2C0.2,30.4,0,30.8,0,31.1v19.7c0,0.3,0.2,0.7,0.5,0.8l22.4,14.1c0.2,0.1,0.3,0.2,0.5,0.2    C23.6,66,23.8,65.9,23.9,65.9z M24.4,63.3V44.4l7.3-4v5.8c0,0.4,0.2,0.7,0.5,0.9c0.2,0.1,0.3,0.1,0.5,0.1c0.2,0,0.3,0,0.5-0.1    l5.5-3c0.3-0.2,0.5-0.5,0.5-0.9v-6.9l5.8-3.2v19.2L24.4,63.3z M15.6,24.5l21.6,11.8v6.3l-3.5,1.9v-5.8c0,0,0,0,0-0.1    c0,0,0-0.1,0-0.1c0-0.1,0-0.2-0.1-0.3c0,0,0,0,0,0c0,0,0,0,0,0c-0.1-0.1-0.1-0.2-0.2-0.3c0,0,0,0-0.1-0.1c0,0-0.1-0.1-0.1-0.1    L12.1,26.4L15.6,24.5z M23.4,20.3l20.5,11.2l-5.7,3.1L17.7,23.4L23.4,20.3z M9.9,27.5l20.7,11.2l-7.2,3.9L3.1,31.1L9.9,27.5z     M2,50.3V32.8l20.4,11.5v18.8L2,50.3z"/></g><g><path d="M19.3,48.3L6.2,40.7c-0.5-0.3-1.1-0.1-1.4,0.4c-0.3,0.5-0.1,1.1,0.4,1.4l13.1,7.6c0.5,0.3,1.1,0.1,1.4-0.4    C20,49.2,19.8,48.6,19.3,48.3z"/></g><g><path d="M19.2,53.3L6.1,45.6C5.6,45.4,5,45.5,4.7,46c-0.3,0.5-0.1,1.1,0.4,1.4L18.2,55c0.5,0.3,1.1,0.1,1.4-0.4    C19.9,54.2,19.7,53.6,19.2,53.3z"/></g><g><path d="M56.1,32.1C56.1,32.1,56.1,32.1,56.1,32.1c0.4,0,0.7-0.2,0.9-0.5c0.4-0.6,9.1-15,9.1-21.8C66,4.4,61.6,0,56.1,0    c-5.5,0-9.9,4.4-9.9,9.9c0,7.1,8.7,21.2,9.1,21.8C55.4,32,55.7,32.1,56.1,32.1z M56.1,2C60.5,2,64,5.5,64,9.9    c0,5-5.7,15.5-7.9,19.3c-2.2-3.8-7.9-14-7.9-19.3C48.2,5.5,51.7,2,56.1,2z"/></g><g><path d="M61.6,9.7c0-3-2.5-5.5-5.5-5.5c-3,0-5.5,2.5-5.5,5.5c0,3,2.5,5.5,5.5,5.5C59.1,15.2,61.6,12.7,61.6,9.7z M52.6,9.7    c0-1.9,1.6-3.5,3.5-3.5c1.9,0,3.5,1.6,3.5,3.5c0,1.9-1.6,3.5-3.5,3.5C54.1,13.2,52.6,11.6,52.6,9.7z"/></g><g><path d="M59.9,35.1c-0.2-0.2-0.4-0.3-0.7-0.3c-0.3,0-0.5,0.1-0.7,0.3l-5.8,5.8c-0.4,0.4-0.4,1,0,1.4c0.4,0.4,1,0.4,1.4,0l4.1-4.1    v24H40.9c-0.6,0-1,0.4-1,1c0,0.6,0.4,1,1,1h18.3c0.6,0,1-0.4,1-1v-25l4.1,4.1c0.4,0.4,1,0.4,1.4,0c0.4-0.4,0.4-1,0-1.4L59.9,35.1z    "/></g><g><path d="M8.4,23.1c0.6,0,1-0.4,1-1V7.8h31l-4.1,4.1c-0.4,0.4-0.4,1,0,1.4c0.4,0.4,1,0.4,1.4,0l5.8-5.8c0,0,0,0,0,0    c0.1-0.1,0.2-0.2,0.2-0.3c0.1-0.1,0.1-0.3,0.1-0.4c0-0.1,0-0.3-0.1-0.4c0-0.1-0.1-0.2-0.2-0.3c0,0,0,0,0,0l-5.8-5.8    c-0.4-0.4-1-0.4-1.4,0c-0.4,0.4-0.4,1,0,1.4l4.1,4.1h-32c-0.6,0-1,0.4-1,1v15.3C7.4,22.6,7.8,23.1,8.4,23.1z"/></g></g><text x="0" y="81" fill="#000000" font-size="5px" font-weight="bold" font-family="'Helvetica Neue', Helvetica, Arial-Unicode, Arial, Sans-serif">Created by Vectors Market</text><text x="0" y="86" fill="#000000" font-size="5px" font-weight="bold" font-family="'Helvetica Neue', Helvetica, Arial-Unicode, Arial, Sans-serif">from the Noun Project</text></svg>