<svg xmlns="http://www.w3.org/2000/svg" xmlns:xlink="http://www.w3.org/1999/xlink" version="1.1" x="0px" y="0px" viewBox="0 0 66 82.5" enable-background="new 0 0 66 66" xml:space="preserve"><g><g><path d="M20.332,11.282h15.006c0.414,0,0.75-0.336,0.75-0.75c0-0.414-0.336-0.75-0.75-0.75H20.332c-0.414,0-0.75,0.336-0.75,0.75    C19.582,10.946,19.918,11.282,20.332,11.282z"/></g><g><path d="M20.332,19.899h15.006c0.414,0,0.75-0.336,0.75-0.75c0-0.414-0.336-0.75-0.75-0.75H20.332c-0.414,0-0.75,0.336-0.75,0.75    C19.582,19.563,19.918,19.899,20.332,19.899z"/></g><g><path d="M20.332,28.516h15.006c0.414,0,0.75-0.336,0.75-0.75c0-0.414-0.336-0.75-0.75-0.75H20.332c-0.414,0-0.75,0.336-0.75,0.75    C19.582,28.18,19.918,28.516,20.332,28.516z"/></g><g><path d="M20.332,37.132h15.006c0.414,0,0.75-0.336,0.75-0.75c0-0.414-0.336-0.75-0.75-0.75H20.332c-0.414,0-0.75,0.336-0.75,0.75    C19.582,36.796,19.918,37.132,20.332,37.132z"/></g><g><path d="M59.931,42.682h-8.29c3.276-3.526-1.88-8.542-5.319-5.206c-0.386,0.375-0.682,1.008-0.907,1.727    c-0.465-0.846-1.327-1.286-2.257-1.369V7.347h8.944c0.414,0,0.75-0.336,0.75-0.75C52.853,3.511,50.342,1,47.256,1    c-0.023,0-0.045,0.003-0.068,0.003H10.906c-3.081,0-5.587,2.506-5.587,5.587v57.66c0,0.414,0.336,0.75,0.75,0.75    c6.237,0,45.968,0,52.259,0c0.414,0,0.75-0.336,0.75-0.75V47.487h0.853c0.414,0,0.75-0.336,0.75-0.75v-3.306    C60.681,43.018,60.345,42.682,59.931,42.682z M48.919,37.922c0.608,0,1.177,0.24,1.601,0.677c0.856,0.882,0.834,2.296-0.047,3.152    c-0.563,0.546-2.545,0.836-4.141,0.91C46.538,39.963,46.925,37.922,48.919,37.922z M44.738,42.662    c-1.299-0.066-2.618-0.294-2.977-0.637c-0.635-0.607-0.658-1.619-0.052-2.254c0.614-0.643,1.622-0.655,2.254-0.051    C44.327,40.067,44.617,41.385,44.738,42.662z M51.284,5.847h-8.057c0.351-1.89,2.005-3.325,3.99-3.344h0.039    c0.004,0,0.007-0.002,0.012-0.002C49.265,2.507,50.932,3.949,51.284,5.847z M6.819,6.59c0-2.253,1.833-4.087,4.087-4.087h32.545    c-1.1,1.023-1.793,2.477-1.793,4.094l0,0.002c0,0.001,0,0.001,0,0.001v31.443c-1.868,0.753-2.44,3.061-1.299,4.638h-7.873    c-0.414,0-0.75,0.336-0.75,0.75v0.817H20.332c-0.414,0-0.75,0.336-0.75,0.75c0,0.414,0.336,0.75,0.75,0.75h11.404v0.988    c0,0.847,0.784,0.75,1.603,0.75v5.378H20.332c-0.414,0-0.75,0.336-0.75,0.75c0,0.414,0.336,0.75,0.75,0.75H33.34V63.5H6.819V6.59z     M34.84,63.5v-7.256h22.738V63.5C25.565,63.5,48.501,63.5,34.84,63.5z M57.578,54.744H34.84v-7.256h22.738V54.744z M59.181,45.987    h-0.853c-9.52,0-15.389,0-25.091,0v-1.806h12.267h0.043h13.634V45.987z"/></g><g><path d="M15.491,7.596h-4.372c-0.414,0-0.75,0.336-0.75,0.75v4.373c0,0.414,0.336,0.75,0.75,0.75h4.372    c0.414,0,0.75-0.336,0.75-0.75V8.346C16.241,7.932,15.905,7.596,15.491,7.596z M14.741,11.968h-2.872V9.096h2.872V11.968z"/></g><g><path d="M15.491,16.212h-4.372c-0.414,0-0.75,0.336-0.75,0.75v4.373c0,0.414,0.336,0.75,0.75,0.75h4.372    c0.414,0,0.75-0.336,0.75-0.75v-4.373C16.241,16.548,15.905,16.212,15.491,16.212z M14.741,20.585h-2.872v-2.873h2.872V20.585z"/></g><g><path d="M15.491,24.829h-4.372c-0.414,0-0.75,0.336-0.75,0.75v4.373c0,0.414,0.336,0.75,0.75,0.75h4.372    c0.414,0,0.75-0.336,0.75-0.75v-4.373C16.241,25.165,15.905,24.829,15.491,24.829z M14.741,29.202h-2.872v-2.873h2.872V29.202z"/></g><g><path d="M15.491,33.446h-4.372c-0.414,0-0.75,0.336-0.75,0.75v4.372c0,0.414,0.336,0.75,0.75,0.75h4.372    c0.414,0,0.75-0.336,0.75-0.75v-4.372C16.241,33.782,15.905,33.446,15.491,33.446z M14.741,37.818h-2.872v-2.872h2.872V37.818z"/></g><g><path d="M15.491,42.063h-4.372c-0.414,0-0.75,0.336-0.75,0.75v4.372c0,0.414,0.336,0.75,0.75,0.75h4.372    c0.414,0,0.75-0.336,0.75-0.75v-4.372C16.241,42.399,15.905,42.063,15.491,42.063z M14.741,46.435h-2.872v-2.872h2.872V46.435z"/></g><g><path d="M15.491,50.68h-4.372c-0.414,0-0.75,0.336-0.75,0.75v4.372c0,0.414,0.336,0.75,0.75,0.75h4.372    c0.414,0,0.75-0.336,0.75-0.75V51.43C16.241,51.016,15.905,50.68,15.491,50.68z M14.741,55.052h-2.872V52.18h2.872V55.052z"/></g></g><text x="0" y="81" fill="#000000" font-size="5px" font-weight="bold" font-family="'Helvetica Neue', Helvetica, Arial-Unicode, Arial, Sans-serif">Created by Vectors Market</text><text x="0" y="86" fill="#000000" font-size="5px" font-weight="bold" font-family="'Helvetica Neue', Helvetica, Arial-Unicode, Arial, Sans-serif">from the Noun Project</text></svg>